<svg version="1.1" id="Layer_1" xmlns="http://www.w3.org/2000/svg" x="0" y="0" viewBox="0 0 1270.422 1468.137" xml:space="preserve"><style>.st1{fill:#ef0092}</style><path class="st1" d="M697.389 1468.412c-93.584 0-187.169-.098-280.752.104-14.32.03-20.77-4.575-20.076-20.397 3.495-79.672 1.773-159.403 1.058-239.11-.231-25.737-.947-25.17 25.496-25.157 180.822.09 361.644.018 542.466-.341 13.54-.027 21.187 3.582 20.213 18.457-.367 5.601-1.29 12.217 6.009 14.581 6.429 2.083 10.854-2.322 15.332-5.983 29.045-23.749 57.991-47.621 87.199-71.168 10.272-8.281 12.914-14.924.377-24.183-31.101-22.968-61.483-46.91-92.231-70.359-4.907-3.742-9.798-10.028-16.545-7.06-6.677 2.938-3.628 10.163-3.2 15.606.95 12.052-4.67 16.94-16.293 16.641-93.548-2.41-187.315 2.259-280.633-5.146-46.975-3.728-90.758-22.367-129.862-49.105-107.25-73.333-163.955-174.175-156.786-305.389 7.682-140.624 99.93-264.6 244.36-304.724 25.898-7.195 53.575-8.195 80.815-8.21 165.81-.086 331.622-.213 497.433-.404 10.38-.012 20.775-.442 31.135-1.113 12.999-.842 19.78 4.918 19.803 17.954.142 79.135.115 158.27.354 237.405.045 15.005-7.139 19.893-21.587 19.847-129.399-.415-258.81-1.311-388.194.05-41.535.438-83.107 2.42-124.696 2.21-19.982-.1-23.109-3.416-21.485-23.27.373-4.568 2.054-9.732-2.75-12.643-5.769-3.496-9.827 1.153-13.517 4.578-30.074 27.91-61.006 54.756-94.461 78.617-8.863 6.32-7.64 12.57.651 19.39 31.655 26.035 62.922 52.54 94.433 78.75 3.854 3.206 7.962 7.803 13.69 4.687 5.588-3.04 4.614-8.972 3.908-13.998-1.703-12.109-.005-20.364 15.34-20.148 72.196 1.018 144.414 1.16 216.605 1.401 69.392.232 128.612 26.16 182.724 65.097 58.773 42.29 100.481 99.457 121.27 168.75 30.824 102.745 19.472 201.45-41.878 291.288-52.044 76.21-124.062 124.955-214.527 143.857-43.658 9.122-88.637 6.012-133.077 6.433-56.036.53-112.08.128-168.12.128l-.001 2.077z"/><path class="st1" d="M277.788 1068.565c0 127.115-.164 254.231.232 381.346.044 14.013-5.984 18.3-18.572 18.225-79.152-.47-158.304-.926-237.456-.992-14.65-.012-22.056-4.09-21.992-20.729.916-235.725-.198-471.472 2.808-707.168.912-71.488 6.503-143.368 27.985-213.198C61.626 425.824 108.875 335.338 177.001 255.5 257.74 160.883 355.888 90.745 471.417 45.377 546.078 16.057 622.9-.946 704.326.207c166.958 2.362 333.966 1.257 500.953 1.453 14.422.017 28.869-.542 43.26-1.495 16.921-1.121 21.954 3.243 21.882 20.287-.295 69.905-.626 139.81-.853 209.715-.15 46.155-.08 45.869-46.466 45.745-167.548-.447-335.08-.884-502.643.589-130.421 1.146-233.526 53.072-319.88 147.298-56.568 61.726-92.154 132.632-110.11 214.219-9.81 44.577-12.175 89.132-12.372 134.133-.432 98.803-.134 197.609-.134 296.414h-.175z"/></svg>