<?xml version="1.0" encoding="utf-8"?>
<!-- Generator: Adobe Illustrator 21.1.0, SVG Export Plug-In . SVG Version: 6.00 Build 0)  -->
<svg version="1.1" id="Layer_1" xmlns="http://www.w3.org/2000/svg" xmlns:xlink="http://www.w3.org/1999/xlink" x="0px" y="0px"
	 viewBox="0 0 432 133.4316559" style="enable-background:new 0 0 432 133.4316559;" xml:space="preserve">
<style type="text/css">
	.st0{fill:#2B323D;}
	.st1{fill:#EF0092;}
</style>
<path class="st1" d="M60.4116325,110.8857117c-5.8284988,0-11.6570168-0.0060959-17.4854927,0.0064697
	c-0.8918343,0.001915-1.2935448-0.2849121-1.2503204-1.2703247c0.2176514-4.9620209,0.1104012-9.9277802,0.0658607-14.8920059
	c-0.0143852-1.6029205-0.0589409-1.567627,1.5879555-1.5668106c11.2617493,0.0056152,22.5235214,0.0011063,33.7852402-0.0212402
	c0.8433456-0.0016632,1.3195953,0.2230835,1.258873,1.1495667c-0.02285,0.3488083-0.0803452,0.7608414,0.3742752,0.9081116
	c0.400383,0.1296997,0.6759949-0.1446304,0.9549026-0.372673c1.8089676-1.4790802,3.6117249-2.9658661,5.4308167-4.4324036
	c0.63974-0.5157471,0.8042831-0.9294891,0.0234833-1.5061188c-1.9370117-1.430481-3.8292313-2.9215546-5.7442322-4.3820114
	c-0.3056183-0.2330704-0.6102066-0.6245804-1.0304184-0.4397125c-0.4158936,0.1829834-0.2259979,0.6329803-0.1992798,0.971962
	c0.0591507,0.7505798-0.2908478,1.0550766-1.0147705,1.0364151c-5.8262558-0.1501465-11.6661758,0.1406784-17.4780769-0.3205185
	c-2.9256668-0.2321777-5.6525002-1.3930283-8.087925-3.0582809c-6.6796532-4.5672836-10.211277-10.8477936-9.7648201-19.0198936
	c0.4784698-8.758213,6.2237473-16.4795532,15.2189598-18.9785347c1.6129799-0.4481049,3.3367157-0.5103836,5.0332527-0.5112724
	c10.3268623-0.0054092,20.6537285-0.0133057,30.980587-0.0252304c0.6464767-0.0007439,1.2938919-0.0274963,1.9391098-0.0693016
	c0.8095856-0.0524597,1.2319031,0.3063011,1.2333527,1.118206c0.0088425,4.9286003,0.0071564,9.8572235,0.0220413,14.7858009
	c0.0028229,0.934536-0.4445572,1.2389565-1.3444061,1.2360687c-8.0591049-0.0258408-16.1189194-0.0816422-24.1771317,0.0031815
	c-2.5868073,0.0272331-5.1759796,0.150631-7.7661514,0.1376419c-1.2445335-0.0062408-1.4392357-0.2127724-1.338131-1.4493675
	c0.0232582-0.2844658,0.1279182-0.606102-0.1712303-0.7873802c-0.3593216-0.2177315-0.61203,0.0718384-0.8418846,0.2851486
	c-1.8730087,1.7382278-3.7994919,3.4102631-5.8831367,4.8963013c-0.5519638,0.3936615-0.4758377,0.7829361,0.0405922,1.2076645
	c1.9714737,1.62146,3.9188423,3.2721939,5.8813553,4.9046249c0.2400475,0.1996765,0.4958496,0.485939,0.8525925,0.2918625
	c0.3480797-0.1893616,0.2874146-0.5587769,0.2434044-0.8718033c-0.1060257-0.7541122-0.0002632-1.2682877,0.955368-1.2548218
	c4.4964752,0.063385,8.9943085,0.0722198,13.490387,0.087265c4.3218155,0.0144653,8.0101166,1.6293259,11.380249,4.0543289
	c3.6604004,2.633873,6.2580566,6.194252,7.5527725,10.5098267c1.9197845,6.3991318,1.2127457,12.5465775-2.6081543,18.141716
	c-3.2413559,4.7464905-7.7267075,7.782341-13.360939,8.9595642c-2.7190933,0.5681381-5.5204391,0.3744202-8.288208,0.4006424
	c-3.4899292,0.0330582-6.9804115,0.0079727-10.4706497,0.0079727
	C60.4116821,110.799469,60.4116592,110.8425903,60.4116325,110.8857117z"/>
<path class="st1" d="M34.2784882,85.9828644c0,7.9168777-0.0102158,15.8337784,0.0144691,23.7505722
	c0.0027161,0.8727493-0.3727036,1.1397247-1.1567001,1.1350708c-4.9296246-0.0292282-9.8593025-0.0576477-14.7889824-0.0617676
	c-0.9124336-0.0007629-1.3736591-0.2547302-1.3696365-1.2909851c0.0569916-14.681221-0.0123329-29.3637695,0.1748657-44.0431137
	c0.056778-4.4523506,0.4050293-8.9290581,1.7429504-13.2781563c1.9202785-6.2421341,4.8629875-11.8776741,9.1059628-16.8500404
	c5.0284061-5.8928185,11.141222-10.2610893,18.3364773-13.0866833c4.6499672-1.8260555,9.4345589-2.8850327,14.5057678-2.813261
	c10.3983192,0.1471672,20.7997246,0.0783482,31.1998711,0.0905323c0.8981781,0.0010529,1.7979431-0.0337315,2.6942444-0.093111
	c1.0538788-0.0698204,1.3673248,0.201973,1.362854,1.2635078c-0.018364,4.353754-0.0390091,8.7074986-0.0531311,13.0612679
	c-0.0093307,2.8745689-0.0049591,2.8567047-2.8939896,2.848999c-10.4349899-0.0278397-20.8690796-0.0550575-31.3050613,0.0366707
	c-8.1227341,0.0713997-14.54422,3.3054123-19.9223824,9.1738815c-3.5231552,3.8443451-5.7394524,8.2604561-6.8577576,13.3417435
	c-0.6110191,2.77631-0.7582855,5.5512619-0.7705383,8.3539124c-0.0269127,6.1535492-0.0083466,12.3072968-0.0083466,18.4609604
	C34.285778,85.9828644,34.2821312,85.9828644,34.2784882,85.9828644z"/>
<g>
	<path class="st1" d="M102.1582336,77.8458176c0-18.069088,12.6615906-33.3685112,33.6324158-33.3685112
		c21.1026611,0,33.7642517,15.2994232,33.7642517,33.3685112c0,18.0693283-12.6615906,33.5005875-33.7642517,33.5005875
		C114.8198242,111.346405,102.1582336,95.9151459,102.1582336,77.8458176z M152.1449585,77.8458176
		c0-9.8916855-5.8029785-18.4645805-16.3543091-18.4645805c-10.4194946,0-16.2224808,8.5728951-16.2224808,18.4645805
		c0,10.0240021,5.8029861,18.5968933,16.2224808,18.5968933C146.34198,96.4427109,152.1449585,87.8698196,152.1449585,77.8458176z"
		/>
	<path class="st1" d="M174.6948853,77.8458176c0-19.5197144,14.2445221-33.3685112,33.7642365-33.3685112
		c13.0570831,0,20.9708252,5.6713982,25.1913605,11.4746284L222.7036591,66.239357
		c-3.0335693-4.4841919-7.6500702-6.85812-13.453064-6.85812c-10.155838,0-17.2781067,7.3859291-17.2781067,18.4645805
		c0,11.0791321,7.1222687,18.5968933,17.2781067,18.5968933c5.8029938,0,10.4194946-2.6378326,13.453064-6.9904327
		l10.9468231,10.2876663c-4.2205353,5.8032303-12.1342773,11.6064606-25.1913605,11.6064606
		C188.9394073,111.346405,174.6948853,97.4978485,174.6948853,77.8458176z"/>
	<path class="st1" d="M282.5787048,109.7637024l-16.8821106-24.5319519l-7.6495972,8.1773987v16.3545532h-16.7502899V21.791954
		h16.7502899v52.6248016l24.1362305-28.3567505h20.5748291l-25.1913452,28.8843155l25.9828186,34.8193817H282.5787048z"/>
	<path class="st1" d="M303.6789551,77.8458176c0-18.4645805,13.7167358-33.3685112,32.9727783-33.3685112
		c19.1242065,0,31.9181213,14.2442932,31.9181213,34.9514503v3.9566269h-47.3491516
		c1.1869812,7.781662,7.5177612,14.2442932,18.3327637,14.2442932c5.4075012,0,12.7934265-2.2420959,16.8821106-6.198967
		l7.5177612,11.0788956c-6.33078,5.8032303-16.3543091,8.8367996-26.24646,8.8367996
		C318.3189697,111.346405,303.6789551,98.2890778,303.6789551,77.8458176z M336.6517334,58.1940308
		c-10.4194946,0-14.9036865,7.254097-15.563324,13.5848923h31.3903198
		C351.9513855,65.7120361,347.7308655,58.1940308,336.6517334,58.1940308z"/>
	<path class="st1" d="M380.8316345,93.8048782v-33.104847H370.280304V46.0600052h10.5513306V28.6503162h16.7502747v17.4096889
		h12.9252625v14.6400261h-12.9252625v28.6204185c0,4.0886993,2.11026,7.122261,5.803009,7.122261
		c2.5062256,0,4.8801575-0.9233017,5.8034668-1.9784317l3.5608826,12.7934265
		c-2.5057678,2.2420959-6.9899597,4.0886993-13.9803772,4.0886993
		C387.0305786,111.346405,380.8316345,105.2792664,380.8316345,93.8048782z"/>
</g>
</svg>
